<?xml version="1.0" encoding="utf-8"?>
<!-- Generator: Adobe Illustrator 26.0.2, SVG Export Plug-In . SVG Version: 6.00 Build 0)  -->
<svg version="1.1" id="Layer_1" xmlns="http://www.w3.org/2000/svg" xmlns:xlink="http://www.w3.org/1999/xlink" x="0px" y="0px"
	 viewBox="0 0 350 150" style="enable-background:new 0 0 350 150;" xml:space="preserve">
<style type="text/css">
	.st0{fill:#2D388D;}
</style>
<path class="st0" d="M157.99,53.52h14.86l11.11,16.32l0.45,0.65h5.63l-12.02-17.81c1.06-0.38,2.04-0.84,2.93-1.38
	c1.44-0.87,2.66-1.89,3.63-3.02c0.96-1.12,1.7-2.35,2.21-3.67c0.51-1.33,0.77-2.64,0.77-3.89c0-1.73-0.37-3.39-1.11-4.94
	c-0.73-1.51-1.7-2.86-2.89-3.99c-1.2-1.14-2.6-2.06-4.17-2.73c-1.6-0.69-3.28-1.04-4.99-1.04H153.5v42.53h4.48V53.52z M157.99,32.4
	h16.27c1.13,0,2.24,0.23,3.28,0.67c1.06,0.46,2.01,1.08,2.82,1.84c0.79,0.75,1.42,1.65,1.88,2.66c0.46,1.02,0.69,2.09,0.69,3.17
	c0,1.12-0.24,2.19-0.72,3.19c-0.49,1.02-1.16,1.91-2.01,2.67c-0.86,0.77-1.91,1.39-3.1,1.85c-1.19,0.46-2.48,0.69-3.83,0.69h-15.28
	V32.4z M216.19,70.53h-23.76V39.86h23.76v3.97h-19.73v9.19h17.62v3.97h-17.62v9.57h19.73V70.53z M244.81,70.49h4.44l-14.02-30.63
	h-1.44l-0.04-0.1l-0.04,0.1h-1.43l-13.98,30.63h4.47l3.84-8.35h14.38L244.81,70.49z M228.41,58.17l5.35-11.78l5.4,11.78H228.41z
	 M275.11,70.49h-23.42V39.86h4.04v26.67h19.38V70.49z M281.09,43.83H270v-3.97h26.21v3.97h-11.09v26.67h-4.03V43.83z M310.47,57.47
	l-13.05-17.61h5.01l10.05,13.58l9.99-13.58h5.09l-13.05,17.61v13.02h-4.03V57.47z M176.79,98.38h17.02v22.83h-4.48v-4.17
	c-1.75,1.46-3.57,2.56-5.43,3.3c-2.79,1.1-5.59,1.66-8.32,1.66c-3.03,0-5.92-0.59-8.59-1.75c-2.66-1.16-5.02-2.75-7-4.73
	c-1.98-1.98-3.58-4.33-4.73-6.97c-1.16-2.68-1.75-5.56-1.75-8.57c0-2.98,0.59-5.85,1.75-8.52c1.15-2.64,2.74-4.98,4.73-6.97
	c1.99-1.99,4.35-3.57,7.01-4.71c2.68-1.15,5.56-1.73,8.58-1.73c2.75,0,5.46,0.54,8.04,1.59c2.56,1.05,4.9,2.54,6.94,4.43l1.14,1.06
	l-3.24,3.24l-1.06-1.04c-1.56-1.53-3.4-2.74-5.47-3.61c-4.34-1.81-9.15-1.66-13.15,0.11c-2.12,0.95-3.99,2.24-5.55,3.83
	c-1.58,1.6-2.83,3.49-3.74,5.61c-0.9,2.1-1.36,4.36-1.36,6.71c0,2.35,0.46,4.62,1.36,6.74c0.91,2.14,2.17,4.03,3.74,5.63
	c1.57,1.61,3.44,2.9,5.56,3.85c2.08,0.94,4.36,1.42,6.79,1.42c2.74,0,5.36-0.67,7.8-1.98c2.33-1.26,4.33-2.98,5.95-5.1v-7.77h-12.54
	V98.38z M219.5,107.76c1.05-0.63,1.94-1.38,2.65-2.21c0.69-0.8,1.24-1.7,1.63-2.7c0.38-0.97,0.57-1.95,0.57-2.89
	c0-1.27-0.28-2.5-0.82-3.65c-0.53-1.12-1.23-2.08-2.11-2.92c-0.86-0.83-1.89-1.51-3.06-2.01c-1.17-0.5-2.41-0.76-3.67-0.76h-15.07
	v30.67h4.03v-11.91h9.72l8.09,11.88h5.03l-8.57-12.7C218.48,108.33,219.01,108.07,219.5,107.76z M213.9,105.41h-10.25V94.59h10.94
	c0.74,0,1.45,0.14,2.11,0.43c0.7,0.3,1.32,0.71,1.84,1.19c0.52,0.5,0.92,1.07,1.23,1.74c0.29,0.64,0.44,1.32,0.44,2.03
	c0,0.72-0.15,1.41-0.46,2.04c-0.32,0.66-0.75,1.24-1.3,1.72c-0.57,0.5-1.25,0.91-2.03,1.21C215.62,105.26,214.8,105.41,213.9,105.41
	z M253.93,94.74c-1.44-1.43-3.13-2.57-5.03-3.38c-3.88-1.66-8.47-1.65-12.31,0c-1.9,0.81-3.59,1.95-5.04,3.39
	c-1.44,1.44-2.58,3.13-3.39,5.03c-0.83,1.92-1.24,3.99-1.24,6.14c0,2.17,0.42,4.24,1.24,6.17c0.81,1.9,1.95,3.59,3.4,5.03
	c1.44,1.43,3.13,2.58,5.03,3.41c1.93,0.84,4,1.26,6.18,1.26c2.15,0,4.22-0.42,6.15-1.26c1.91-0.83,3.6-1.98,5.03-3.4
	c1.44-1.43,2.58-3.12,3.39-5.03c0.83-1.92,1.25-4,1.25-6.17c0-2.15-0.42-4.22-1.25-6.13C256.51,97.87,255.37,96.17,253.93,94.74z
	 M253.52,110.45c-0.62,1.45-1.46,2.74-2.53,3.83c-1.06,1.09-2.31,1.96-3.73,2.59c-2.82,1.26-6.28,1.24-9.06,0
	c-1.41-0.63-2.66-1.5-3.73-2.59c-1.06-1.09-1.91-2.38-2.53-3.83c-0.6-1.42-0.91-2.95-0.91-4.54c0-1.59,0.31-3.11,0.91-4.52
	c0.62-1.44,1.47-2.72,2.52-3.79c1.06-1.08,2.32-1.95,3.73-2.58c1.41-0.62,2.94-0.94,4.55-0.94c1.58,0,3.1,0.32,4.51,0.94
	c1.41,0.63,2.67,1.5,3.73,2.58c1.05,1.07,1.9,2.35,2.52,3.79c0.6,1.42,0.91,2.94,0.91,4.52
	C254.44,107.5,254.13,109.03,253.52,110.45z M284.97,90.63h4.04v17.84c0,1.83-0.35,3.57-1.03,5.18c-0.68,1.6-1.63,3.02-2.82,4.22
	c-1.18,1.19-2.59,2.15-4.19,2.86c-1.64,0.71-3.35,1.06-5.23,1.06c-1.86,0-3.62-0.36-5.24-1.06c-1.61-0.7-3.03-1.65-4.23-2.83
	c-1.2-1.19-2.16-2.61-2.84-4.21c-0.69-1.6-1.04-3.35-1.04-5.18V90.63h4.04v18.01c0,1.26,0.24,2.45,0.72,3.54
	c0.49,1.11,1.16,2.09,2,2.92c0.86,0.84,1.87,1.51,2.98,1.99c2.22,0.95,4.96,0.96,7.18,0.02c1.12-0.47,2.11-1.14,2.95-1.97
	c0.84-0.83,1.51-1.82,2-2.92c0.48-1.1,0.72-2.28,0.72-3.51V90.63z M315.35,93.46c-0.89-0.86-1.94-1.55-3.14-2.06
	c-1.21-0.51-2.51-0.77-3.85-0.77h-14.83v30.67h4.04v-11.23h10.79c1.36,0,2.66-0.26,3.84-0.77c1.19-0.5,2.25-1.19,3.15-2.07
	c0.91-0.88,1.62-1.92,2.13-3.09c0.52-1.19,0.79-2.46,0.79-3.79c0-1.33-0.26-2.61-0.78-3.79C316.97,95.39,316.26,94.35,315.35,93.46z
	 M313.66,102.57c-0.31,0.69-0.74,1.3-1.28,1.83c-0.54,0.52-1.18,0.94-1.9,1.25c-0.73,0.3-1.49,0.45-2.3,0.45h-10.61v-11.5h10.68
	c0.8,0,1.57,0.16,2.27,0.46c0.73,0.32,1.37,0.75,1.9,1.27c0.53,0.52,0.94,1.12,1.25,1.82c0.3,0.69,0.45,1.43,0.45,2.21
	C314.12,101.14,313.97,101.88,313.66,102.57z M23.43,18h122.96v114H23.43v-18.85h4.85v14h113.25V22.85H28.28v13.97h-4.85V18z
	 M70.71,72.68c1.45-1.7,2.56-3.54,3.31-5.49c0.76-1.96,1.14-3.9,1.14-5.77c0-2.58-0.56-5.05-1.65-7.35c-1.08-2.27-2.54-4.29-4.34-6
	c-1.8-1.71-3.91-3.1-6.29-4.12c-2.39-1.03-4.9-1.55-7.47-1.55H23.44v65.19h4.85V80.59h25.29l18.32,26.92h6.22L59.4,79.79
	c2.15-0.64,4.11-1.49,5.84-2.55C67.43,75.9,69.27,74.37,70.71,72.68z M53.64,75.9H28.29V47.1h26.92c1.96,0,3.86,0.39,5.65,1.15
	c1.81,0.77,3.42,1.82,4.79,3.13c1.36,1.3,2.46,2.84,3.25,4.59c0.78,1.74,1.18,3.58,1.18,5.49c0,1.95-0.42,3.82-1.25,5.54
	c-0.84,1.76-2,3.3-3.46,4.59c-1.47,1.31-3.24,2.36-5.25,3.14C58.11,75.51,55.93,75.9,53.64,75.9z M129.56,67.58
	c0.81-1.39,1.4-2.83,1.75-4.3c0.33-1.4,0.5-2.73,0.5-3.94c0-2.37-0.47-4.61-1.41-6.67c-0.92-2.04-2.18-3.85-3.76-5.37
	c-1.57-1.52-3.43-2.72-5.52-3.59c-2.1-0.87-4.36-1.31-6.71-1.31H83.29v65.11h34.56c2.52,0,4.91-0.46,7.11-1.38
	c2.21-0.92,4.16-2.21,5.8-3.82c1.65-1.62,2.97-3.52,3.92-5.66c0.95-2.15,1.44-4.49,1.44-6.95c0-1.65-0.28-3.38-0.84-5.14
	c-0.57-1.81-1.45-3.53-2.61-5.09c-1.19-1.6-2.73-3.04-4.58-4.29c-1.12-0.75-2.38-1.38-3.76-1.91c0.77-0.52,1.47-1.09,2.11-1.71
	C127.69,70.32,128.75,68.97,129.56,67.58z M127.07,80.41c1.25,1.17,2.23,2.57,2.92,4.16c0.69,1.6,1.04,3.31,1.04,5.11
	c0,1.79-0.35,3.49-1.04,5.05c-0.69,1.56-1.65,2.98-2.87,4.2c-1.21,1.21-2.65,2.17-4.27,2.86c-1.62,0.69-3.35,1.04-5.15,1.04H88.14
	v-26.3h28.7c2.07,0,3.99,0.35,5.72,1.05C124.29,78.27,125.81,79.22,127.07,80.41z M123.01,68.35c-1.14,1.14-2.48,2.05-4,2.72
	c-1.51,0.66-3.16,1-4.91,1H88.14V47.1h25.96c1.71,0,3.35,0.32,4.89,0.96c1.54,0.65,2.9,1.55,4.03,2.68
	c1.13,1.13,2.05,2.47,2.72,3.97c0.66,1.48,0.99,3.09,0.99,4.79c0,1.7-0.33,3.33-0.99,4.83C125.06,65.87,124.14,67.22,123.01,68.35z"
	/>
</svg>
